<svg xmlns="http://www.w3.org/2000/svg" width="38" height="30" viewBox="0 0 38 30" fill="none">
<g filter="url(#filter0_d)">
<path d="M0 0H30V17C30 18.1046 29.1046 19 28 19H2C0.89543 19 0 18.1046 0 17V0Z" transform="translate(5 6)" fill="#F9F9F9"/>
<path d="M3.77 7.8C4.72333 7.852 5.447 8.112 5.941 8.58C6.44367 9.03933 6.695 9.64167 6.695 10.387C6.695 10.907 6.56933 11.3707 6.318 11.778C6.06667 12.1767 5.694 12.493 5.2 12.727C4.706 12.961 4.10367 13.078 3.393 13.078C2.73433 13.078 2.11033 12.974 1.521 12.766C0.940333 12.5493 0.472333 12.2633 0.117 11.908L0.572 11.167C0.875333 11.479 1.27833 11.7347 1.781 11.934C2.28367 12.1247 2.821 12.22 3.393 12.22C4.13833 12.22 4.71467 12.0597 5.122 11.739C5.52933 11.4097 5.733 10.959 5.733 10.387C5.733 9.82367 5.52933 9.38167 5.122 9.061C4.71467 8.74033 4.09933 8.58 3.276 8.58H2.626V7.891L5.148 4.732H0.494V3.9H6.344V4.563L3.77 7.8ZM11.6409 13.078C10.9389 13.078 10.3106 12.8917 9.75589 12.519C9.20989 12.1463 8.78089 11.6133 8.46889 10.92C8.16556 10.218 8.01389 9.39467 8.01389 8.45C8.01389 7.50533 8.16556 6.68633 8.46889 5.993C8.78089 5.291 9.20989 4.75367 9.75589 4.381C10.3106 4.00833 10.9389 3.822 11.6409 3.822C12.3429 3.822 12.9669 4.00833 13.5129 4.381C14.0676 4.75367 14.5009 5.291 14.8129 5.993C15.1249 6.68633 15.2809 7.50533 15.2809 8.45C15.2809 9.39467 15.1249 10.218 14.8129 10.92C14.5009 11.6133 14.0676 12.1463 13.5129 12.519C12.9669 12.8917 12.3429 13.078 11.6409 13.078ZM11.6409 12.22C12.1696 12.22 12.6332 12.0727 13.0319 11.778C13.4392 11.4833 13.7556 11.0543 13.9809 10.491C14.2062 9.92767 14.3189 9.24733 14.3189 8.45C14.3189 7.65267 14.2062 6.97233 13.9809 6.409C13.7556 5.84567 13.4392 5.41667 13.0319 5.122C12.6332 4.82733 12.1696 4.68 11.6409 4.68C11.1122 4.68 10.6442 4.82733 10.2369 5.122C9.83822 5.41667 9.52622 5.84567 9.30089 6.409C9.07556 6.97233 8.96289 7.65267 8.96289 8.45C8.96289 9.24733 9.07556 9.92767 9.30089 10.491C9.52622 11.0543 9.83822 11.4833 10.2369 11.778C10.6442 12.0727 11.1122 12.22 11.6409 12.22Z" transform="translate(12 7)" fill="black"/>
</g>
<path d="M0 2C0 0.89543 0.895431 0 2 0H28C29.1046 0 30 0.895431 30 2V6H0V2Z" transform="translate(5)" fill="#FFCCCC"/>
<circle cx="1.5" cy="1.5" r="1.5" transform="translate(9 2)" fill="white"/>
<circle cx="1.5" cy="1.5" r="1.5" transform="translate(28 2)" fill="white"/>
<defs>
<filter id="filter0_d" x="0" y="3" width="38" height="27" filterUnits="userSpaceOnUse" color-interpolation-filters="sRGB">
<feFlood flood-opacity="0" result="BackgroundImageFix"/>
<feColorMatrix in="SourceAlpha" type="matrix" values="0 0 0 0 0 0 0 0 0 0 0 0 0 0 0 0 0 0 255 0"/>
<feOffset dx="-1" dy="1"/>
<feGaussianBlur stdDeviation="2"/>
<feColorMatrix type="matrix" values="0 0 0 0 0 0 0 0 0 0 0 0 0 0 0 0 0 0 0.25 0"/>
<feBlend mode="normal" in2="BackgroundImageFix" result="effect1_dropShadow"/>
<feBlend mode="normal" in="SourceGraphic" in2="effect1_dropShadow" result="shape"/>
</filter>
</defs>
</svg>