<svg xmlns="http://www.w3.org/2000/svg" width="92" height="92" viewBox="0 0 92 92" fill="none">
<rect width="92" height="55" fill="#C4C4C4"/>
<rect width="78" height="47" transform="translate(7 4)" fill="white"/>
<rect width="55" height="38" transform="translate(18 8)" fill="#CCFFD9"/>
<path d="M0 41V16.4019C0 7.34161 7.34479 0 16.405 0C27.227 0 36 8.77295 36 19.5949V41H0Z" transform="translate(28 50)" fill="#336699" stroke="white"/>
<circle cx="20" cy="20" r="20" transform="translate(26 10)" fill="#FFCCCC"/>
<ellipse cx="19" cy="18.5" rx="19" ry="18.5" transform="translate(27 10)" fill="#331A00"/>
<path d="M0 0C0.8 0 3.5 2.5 4.5 2C5.5 1.5 10 4.5 10 4.5" transform="translate(46 11)" stroke="#1A0D00"/>
<path d="M0 0C0.8 0 3.5 2.5 4.5 2C5.5 1.5 10 4.5 10 4.5" transform="translate(36 14)" stroke="#1A0D00"/>
<path d="M0 0C0.8 0 3.5 2.5 4.5 2C5.5 1.5 10 4.5 10 4.5" transform="translate(41 12)" stroke="#1A0D00"/>
</svg>